<mxfile host="app.diagrams.net" modified="2023-11-27T20:25:59.987Z" agent="Mozilla/5.0 (X11; Ubuntu; Linux x86_64; rv:109.0) Gecko/20100101 Firefox/119.0" etag="x_u9kbQwBXcpWb7iAdDo" version="22.1.4" type="device">
  <diagram name="Страница — 1" id="t1sV-pS5QgFbIwAMoOLm">
    <mxGraphModel dx="1364" dy="795" grid="1" gridSize="10" guides="1" tooltips="1" connect="1" arrows="1" fold="1" page="1" pageScale="1" pageWidth="827" pageHeight="1169" math="0" shadow="0">
      <root>
        <mxCell id="0" />
        <mxCell id="1" parent="0" />
        <mxCell id="30wwF7nOkl3Lb4sd98eB-1" value="" style="ellipse;whiteSpace=wrap;html=1;aspect=fixed;" vertex="1" parent="1">
          <mxGeometry x="65" y="340" width="95" height="95" as="geometry" />
        </mxCell>
        <mxCell id="30wwF7nOkl3Lb4sd98eB-4" value="&lt;font style=&quot;font-size: 14px;&quot;&gt;NUMCHECK&lt;/font&gt;" style="text;html=1;strokeColor=none;fillColor=none;align=center;verticalAlign=middle;whiteSpace=wrap;rounded=0;" vertex="1" parent="1">
          <mxGeometry x="47.5" y="350" width="130" height="75" as="geometry" />
        </mxCell>
        <mxCell id="30wwF7nOkl3Lb4sd98eB-5" value="" style="ellipse;whiteSpace=wrap;html=1;aspect=fixed;" vertex="1" parent="1">
          <mxGeometry x="610" y="340" width="95" height="95" as="geometry" />
        </mxCell>
        <mxCell id="30wwF7nOkl3Lb4sd98eB-6" value="" style="ellipse;whiteSpace=wrap;html=1;aspect=fixed;" vertex="1" parent="1">
          <mxGeometry x="67.5" y="540" width="90" height="90" as="geometry" />
        </mxCell>
        <mxCell id="30wwF7nOkl3Lb4sd98eB-7" value="END" style="text;html=1;strokeColor=none;fillColor=none;align=center;verticalAlign=middle;whiteSpace=wrap;rounded=0;" vertex="1" parent="1">
          <mxGeometry x="82.5" y="570" width="60" height="30" as="geometry" />
        </mxCell>
        <mxCell id="30wwF7nOkl3Lb4sd98eB-9" value="" style="endArrow=classic;html=1;rounded=0;entryX=0.5;entryY=0;entryDx=0;entryDy=0;" edge="1" parent="1" target="30wwF7nOkl3Lb4sd98eB-6">
          <mxGeometry width="50" height="50" relative="1" as="geometry">
            <mxPoint x="112" y="435" as="sourcePoint" />
            <mxPoint x="112" y="515" as="targetPoint" />
          </mxGeometry>
        </mxCell>
        <mxCell id="30wwF7nOkl3Lb4sd98eB-14" value="&lt;div style=&quot;color: rgb(204, 204, 204); background-color: rgb(31, 31, 31); font-family: &amp;quot;Droid Sans Mono&amp;quot;, &amp;quot;monospace&amp;quot;, monospace; font-weight: normal; line-height: 19px;&quot;&gt;&lt;div&gt;&lt;font style=&quot;font-size: 12px;&quot;&gt;if (fscanf&lt;span style=&quot;color: #cccccc;&quot;&gt;(&lt;/span&gt;&lt;span style=&quot;color: #9cdcfe;&quot;&gt;sm&lt;/span&gt;&lt;span style=&quot;color: #cccccc;&quot;&gt;-&amp;gt;&lt;/span&gt;&lt;span style=&quot;color: #9cdcfe;&quot;&gt;file&lt;/span&gt;&lt;span style=&quot;color: #cccccc;&quot;&gt;, &lt;/span&gt;&lt;span style=&quot;color: #ce9178;&quot;&gt;&quot;&lt;/span&gt;&lt;span style=&quot;color: #9cdcfe;&quot;&gt;%d&lt;/span&gt;&lt;span style=&quot;color: #ce9178;&quot;&gt;&quot;&lt;/span&gt;&lt;span style=&quot;color: #cccccc;&quot;&gt;, &lt;/span&gt;&lt;span style=&quot;color: #d4d4d4;&quot;&gt;&amp;amp;&lt;/span&gt;&lt;span style=&quot;color: #9cdcfe;&quot;&gt;sm&lt;/span&gt;&lt;span style=&quot;color: #cccccc;&quot;&gt;-&amp;gt;&lt;/span&gt;&lt;span style=&quot;color: #9cdcfe;&quot;&gt;octal_number&lt;/span&gt;&lt;span style=&quot;color: #cccccc;&quot;&gt;) &lt;/span&gt;&lt;span style=&quot;color: #d4d4d4;&quot;&gt;==&lt;/span&gt;&lt;span style=&quot;color: #cccccc;&quot;&gt; &lt;/span&gt;&lt;span style=&quot;color: #b5cea8;&quot;&gt;1&lt;/span&gt;&lt;/font&gt;&lt;/div&gt;&lt;/div&gt;" style="text;html=1;strokeColor=none;fillColor=none;align=center;verticalAlign=middle;whiteSpace=wrap;rounded=0;" vertex="1" parent="1">
          <mxGeometry x="160" y="340" width="440" height="30" as="geometry" />
        </mxCell>
        <mxCell id="30wwF7nOkl3Lb4sd98eB-15" value="" style="endArrow=classic;html=1;rounded=0;entryX=0;entryY=0.5;entryDx=0;entryDy=0;" edge="1" parent="1" target="30wwF7nOkl3Lb4sd98eB-5">
          <mxGeometry width="50" height="50" relative="1" as="geometry">
            <mxPoint x="160" y="387" as="sourcePoint" />
            <mxPoint x="250" y="387" as="targetPoint" />
          </mxGeometry>
        </mxCell>
        <mxCell id="30wwF7nOkl3Lb4sd98eB-16" value="" style="ellipse;whiteSpace=wrap;html=1;aspect=fixed;" vertex="1" parent="1">
          <mxGeometry x="607.5" y="140" width="100" height="100" as="geometry" />
        </mxCell>
        <mxCell id="30wwF7nOkl3Lb4sd98eB-17" value="REVERSE" style="text;html=1;strokeColor=none;fillColor=none;align=center;verticalAlign=middle;whiteSpace=wrap;rounded=0;" vertex="1" parent="1">
          <mxGeometry x="627.5" y="372.5" width="60" height="30" as="geometry" />
        </mxCell>
        <mxCell id="30wwF7nOkl3Lb4sd98eB-19" value="" style="endArrow=classic;html=1;rounded=0;entryX=0.5;entryY=1;entryDx=0;entryDy=0;" edge="1" parent="1" target="30wwF7nOkl3Lb4sd98eB-16">
          <mxGeometry width="50" height="50" relative="1" as="geometry">
            <mxPoint x="657" y="340" as="sourcePoint" />
            <mxPoint x="657.5" y="270" as="targetPoint" />
          </mxGeometry>
        </mxCell>
        <mxCell id="30wwF7nOkl3Lb4sd98eB-20" value="CONVERT" style="text;html=1;strokeColor=none;fillColor=none;align=center;verticalAlign=middle;whiteSpace=wrap;rounded=0;" vertex="1" parent="1">
          <mxGeometry x="627.5" y="175" width="60" height="30" as="geometry" />
        </mxCell>
        <mxCell id="30wwF7nOkl3Lb4sd98eB-21" value="" style="endArrow=classic;html=1;rounded=0;entryX=0.5;entryY=0;entryDx=0;entryDy=0;exitX=0;exitY=0.5;exitDx=0;exitDy=0;" edge="1" parent="1" source="30wwF7nOkl3Lb4sd98eB-16" target="30wwF7nOkl3Lb4sd98eB-1">
          <mxGeometry width="50" height="50" relative="1" as="geometry">
            <mxPoint x="390" y="190" as="sourcePoint" />
            <mxPoint x="110" y="260" as="targetPoint" />
            <Array as="points">
              <mxPoint x="110" y="190" />
            </Array>
          </mxGeometry>
        </mxCell>
      </root>
    </mxGraphModel>
  </diagram>
</mxfile>
